<?xml version="1.0" encoding="UTF-8" standalone="no"?>
<svg
   width="438.131"
   height="169.105"
   xml:space="preserve"
   version="1.1"
   id="svg87"
   sodipodi:docname="alquimista_logo-02.svg"
   inkscape:version="1.1 (c4e8f9e, 2021-05-24)"
   xmlns:inkscape="http://www.inkscape.org/namespaces/inkscape"
   xmlns:sodipodi="http://sodipodi.sourceforge.net/DTD/sodipodi-0.dtd"
   xmlns="http://www.w3.org/2000/svg"
   xmlns:svg="http://www.w3.org/2000/svg"><defs
     id="defs91" /><sodipodi:namedview
     id="namedview89"
     pagecolor="#ffffff"
     bordercolor="#666666"
     borderopacity="1.0"
     inkscape:pageshadow="2"
     inkscape:pageopacity="0.0"
     inkscape:pagecheckerboard="0"
     showgrid="false"
     inkscape:zoom="2.9009588"
     inkscape:cx="219.06551"
     inkscape:cy="84.454837"
     inkscape:window-width="1440"
     inkscape:window-height="794"
     inkscape:window-x="0"
     inkscape:window-y="23"
     inkscape:window-maximized="0"
     inkscape:current-layer="svg87" /><path
     d="m158.15 105.372-.064-.021c-2.365-.344-2.253-.648-3.58-3.616-1.634-3.705-6.354-16.161-7.239-18.601-.343-.959-.988-2.667-1.099-3.022-.098-.364-3.237-.356-3.333 0-.106.346-.773 2.468-1.052 3.28-.971 2.859-5.12 13.586-6.938 17.923-1.491 3.457-1.127 3.623-4.201 4.036l-.058.014-.032.039c-.228.275-.228 1.645 0 1.9l.046.065h.071c.133 0 2.29-.166 4.507-.166 2.326 0 4.718.166 4.871.166h.065l.057-.043c.25-.266.356-1.641.136-1.924l-.041-.053h-.067c-.93-.106-1.169-.229-1.64-.351-1.177-.271-1.283-.526-1.283-1.233 0-.67.755-2.695 1.49-4.656.171-.449.178-.354.343-.806 0 0 .25-.266.364-.266.47-.036.916-.036 3.609-.036 1.576 0 3.529 0 4.3.036.036.008.22.05.285.2.749 1.812 1.815 4.101 2.333 5.776.057.207.028.691-.407.869-.606.2-.856.329-1.875.465l-.043.014-.043.036c-.278.271-.242 1.642-.007 1.902l.05.066h.067c.183 0 2.871-.18 5.549-.188 1.986 0 4.065.165 4.575.188h.193l.042-.066c.178-.204.307-1.097.243-1.562-.036-.178-.094-.299-.194-.365zm-14.756-19.483h.008c.656 1.571 2.054 5.42 2.899 7.753l.459 1.341c.022.114-.05.221-.071.229-.557.041-1.911.041-2.971.041-1.215 0-3.126 0-3.555-.035-.039-.014-.049-.056-.057-.131.421-1.345 1.291-3.62 1.904-5.293.536-1.469 1.035-2.85 1.377-3.903l.007-.002zM428.841 105.372l-.062-.021c-2.369-.344-2.547-.648-3.874-3.616-1.629-3.705-6.372-16.161-7.238-18.601-.332-.959-.996-2.667-1.096-3.022-.117-.364-2.956-.356-3.06 0-.089.346-.76 2.468-1.049 3.28-.966 2.859-5.113 13.586-6.932 17.923-1.491 3.457-1.123 3.623-4.193 4.036l-.061.014-.036.039c-.217.275-.217 1.645 0 1.9l.047.065h9.51l.057-.043c.262-.266.354-1.641.144-1.924l-.042-.053h-.064c-.94-.106-1.177-.229-1.644-.351-1.18-.271-1.281-.526-1.281-1.233 0-.67.76-2.695 1.499-4.656.168-.449.168-.354.325-.806 0 0 .252-.266.378-.266.456-.036.913-.036 3.601-.036 1.575 0 3.531 0 4.312.036.021.008.206.05.271.2.744 1.812 1.823 4.101 2.341 5.776.057.207.022.691-.415.869-.6.2-.854.329-1.869.465l-.058.014-.035.036c-.274.271-.229 1.642-.015 1.902l.05.066h.076c.32 0 8.95-.058 10.129 0h.188l.062-.066c.156-.204.292-1.097.223-1.562-.033-.178-.09-.299-.189-.365zm-14.756-19.483c.662 1.571 2.053 5.42 2.905 7.753l.456 1.341c.028.114-.045.221-.067.229-.552.041-1.922.041-2.97.041-1.222 0-3.136 0-3.56-.035-.047-.014-.061-.056-.066-.131.427-1.345 1.312-3.62 1.91-5.293.527-1.469 1.038-2.85 1.38-3.903l.012-.002zM185.565 98.135c-.036 0-.064 0-.086.011l-.085.007-.04.09c-.632 1.454-1.637 3.494-2.499 4.835-.877 1.391-1.626 1.669-2.558 1.669h-1.386c-2.054 0-4.529-.029-5.481-.285-.014 0-.767-.392-.81-1.056-.12-1.653-.12-3.853-.12-10.378 0-4.393.028-7.688.12-9.367.036-.716.143-1.237 1.06-1.472.224-.028 1.333-.292 1.815-.421l.078-.008.036-.051c.235-.343.314-1.548-.015-1.875l-.05-.043-.253.016c-.944.034-1.815.112-4.921.112-1.808 0-3.063-.043-4.069-.085-.699-.015-.52-.043-1.105-.043h-.064l-.046.037c-.317.267-.411 1.511-.15 1.881l.035.051.068.008c.613.113 1.099.276 1.626.435.678.215 1.07.643 1.121 2.231.064.85.056 3.074.056 5.542-.006.979-.006 2.09-.006 3.338 0 2.511-.05 8.985-.128 10.163-.093.648-.5 1.318-1.035 1.447-.414.094-.842.179-1.912.293-.256.028-.537.055-.826.085l-.083.014c-.203.145-.242.564-.242.899 0 .136.011.897.289 1.084l.037.016h.052c.282 0 1.01-.016 1.901-.029 1.523-.047 3.139-.101 4.537-.101 1.034 0 3.172.043 5.42.101 2.695.057 5.477.121 7.097.121 1.311 0 1.867-.185 2.014-.635.885-1.462 2.158-6.005 2.45-7.717l.015-.063-.05-.064c-.273-.366-1.311-.793-1.807-.793zM224.069 113.925c-.827-.229-1.604-.605-2.574-.978l-.734-.272s-1.32-.525-2.312-.961a9.051 9.051 0 0 0-.919-.386c-1.812-.733-3.662-1.751-5.521-3.074a77.958 77.958 0 0 1-1.593-1.169c.188-.062.295-.113.295-.128 5.392-1.351 10.474-5.764 10.474-13.521 0-7.889-6.909-13.829-15.066-13.829-8.18 0-15.069 6.317-15.069 13.829 0 7.089 4.814 12.286 10.477 13.521 1.212.248 2.311.414 3.315.483.39.328.8.648 1.241.971 2.222 1.604 4.279 2.903 6.177 3.862 1.904.952 4.403 1.578 6.696 2.089 2.433.539 3.255.488 4.101.488.137 0 .264.021.853 0 0 0 .325-.199.312-.481-.008-.145.006-.403-.153-.444zm-27.221-20.641c0-4.472 1.184-12.509 9.292-12.509 8.062 0 9.264 8.303 9.264 12.638 0 3.68-.741 12.694-8.808 12.694-8.108 0-9.748-8.257-9.748-12.823zM257.662 79.841h-.043c-.271 0-.378.016-1.044.035-1.133.043-1.969.101-3.325.101-1.688 0-2.565-.058-3.726-.092-.707-.016-.871-.044-1.229-.044h-.066l-.062.051c-.228.21-.274.854-.256 1.22.014.35.083.578.217.677l.04.029.055.015c.346.05.969.134.969.134s.561.079 1.027.194c1.205.257 1.444.982 1.483 2.773.225 4.021-.007 8.339-.039 11.856-.036 4.539-3.022 7.405-7.603 7.612-5.484.243-7.646-2.709-8.023-5.291-.122-.663-.264-2.347-.317-3.274a368.431 368.431 0 0 1-.043-11.36c.043-1.247.539-1.91 1.087-2.073.613-.193.789-.332 1.295-.4.351-.043.402-.105.823-.179l.046-.007.039-.035c.215-.207.236-.863.2-1.249-.058-.526-.214-.635-.274-.663l-.039-.028h-.054c-.531 0-.999.028-1.908.051a104.44 104.44 0 0 1-3.654.085c-1.266 0-2.949-.042-4.309-.058a63.592 63.592 0 0 0-1.537-.027l-.086.007c-.256.122-.324.621-.345.906-.019.242-.019.834.238.999l.271.057c.899.122 1.219.371 1.695.569.814.229 1.2.778 1.248 1.784 0 .333.014 1.24.023 2.46.043 3.836-.158 11.582.465 13.637 1.926 6.39 7.943 7.209 12.707 7.209 5.757 0 9.188-2.475 10.261-5.805.823-2.577.856-6.062 1.06-11.469.049-1.476.057-3.151.127-5.057.101-1.839.256-2.433 1.355-2.909.688-.292 1.263-.464 1.263-.464.171-.07.276-.285.306-.649.043-.343.016-1.12-.273-1.298l-.045-.03zM277.951 105.309h-.042c-1.402-.192-1.922-.378-2.376-.471-1.233-.321-1.447-.806-1.491-2.17-.07-1.391-.128-5.177-.128-9.633v-2.348c-.006-2.811-.021-5.015.083-6.483.089-1.298.25-1.711 1.166-1.947.595-.17.904-.248 2.011-.377l.074-.007.041-.066c.249-.354.21-1.561 0-1.882l-.046-.077h-.083c-.485 0-.748.027-1.604.05-1.191.044-2.666.086-4.019.086-1.388 0-3.021-.05-4.197-.086-.749-.021-.817-.05-1.146-.05h-.074l-.046.07c-.202.258-.31 1.618-.024 1.912l.031.043.061.007c1.289.163 1.547.296 2.297.515.771.221.897.576.99 1.769.1 1.598.086 3.422.086 5.955-.008.699-.008 1.419-.008 2.204 0 1.347 0 2.538.008 3.572 0 4.508 0 6.368-.136 7.374-.121.842-.26 1.37-1.541 1.697-.62.121-.819.206-1.997.343h-.035l-.029.035c-.238.192-.238.997-.203 1.349.054.491.182.612.262.656l.078.021c.267 0 .467-.021 1.216-.043 1.353-.029 3.224-.091 4.838-.091 1.377 0 3.025.047 4.358.091.855.021 1.062.043 1.433.043h.058l.043-.036c.242-.187.293-1.026.293-1.299 0-.493-.092-.635-.17-.691l-.032-.035zM342.638 105.309h-.04c-1.404-.192-1.922-.378-2.367-.471-1.245-.321-1.459-.806-1.502-2.17-.077-1.391-.128-5.177-.128-9.633v-2.348c-.007-2.811-.007-5.015.082-6.483.089-1.298.243-1.711 1.163-1.947.6-.17.92-.248 2.016-.377l.069-.007.043-.066c.25-.354.207-1.561 0-1.882l-.043-.077h-.085c-.487 0-.738.027-1.594.05-1.198.044-2.682.086-4.029.086-1.387 0-3.006-.05-4.196-.086-.746-.021-.82-.05-1.139-.05h-.082l-.046.07c-.2.258-.312 1.618-.024 1.912l.039.043.043.007c1.3.163 1.551.296 2.296.515.776.221.916.576 1.002 1.769.093 1.598.086 3.422.078 5.955v5.776c.008 4.508.008 6.368-.128 7.374-.117.842-.266 1.37-1.534 1.697-.626.121-.827.206-1.996.343h-.036l-.037.035c-.236.192-.236.997-.195 1.349.05.491.171.612.261.656l.069.021c.279 0 .473-.021 1.222-.043 1.354-.029 3.223-.091 4.832-.091 1.373 0 3.026.047 4.354.091.863.021 1.066.043 1.447.043h.044l.05-.036c.235-.187.291-1.026.291-1.299 0-.493-.092-.635-.163-.691l-.037-.035zM322.223 105.314l-.07-.014c-.403-.057-.446-.113-.768-.165a26.61 26.61 0 0 1-1.416-.22c-.674-.292-.922-.819-1.091-2.352-.251-2.94-.58-16.057-.495-18.675 0-1.104.489-1.396.975-1.539.487-.128.127-.144.95-.351.5-.121.929-.157 1.186-.284.256-.15.16-.984.114-1.362-.052-.379-.154-.479-.223-.526l-.039-.017h-.04c-.799 0-1.06.017-1.979.036-1.406.043-3.149-.051-5.824-.051h-.136s-.364 1.529-.688 2.46c-1.803 4.244-7.246 15.685-7.984 17.167-.855-1.662-5.887-12.327-7.875-16.773-.43-1.062-.654-2.854-.654-2.854h-.143c-2.731 0-4.683.094-6.162.051-.959-.021-1.092-.036-1.805-.036h-.047l-.039.017c-.234.147-.279.84-.285 1.047 0 .351.043.785.235.933l.063.023c1.57.263 1.855.436 2.511.648.899.271 1.034 1.173 1.034 1.665-.059.694-.121 1.564-.188 2.515-.382 4.971-.956 12.478-1.38 15.604-.25 1.755-.445 2.196-1.633 2.609-.592.158-.885.294-1.969.429l-.062.008-.053.057c-.25.322-.25 1.63.007 1.939l.046.065h.082c.271 0 .296-.021.892-.043 1.069-.029 2.547-.094 4.115-.094 1.547 0 3.151.063 4.322.094.643.021.343.043.605.043h.043l.024-.021c.167-.104.289-.372.347-.8.049-.342.07-.99-.137-1.197l-.042-.043-.05-.008c-1.404-.179-1.511-.307-2.207-.562-1.273-.399-1.334-1.04-1.334-2.325.132-4.551.85-15.726.85-15.726.491 1.183 1.112 2.683 1.879 4.485 2.451 5.719 6.104 13.216 6.903 15.883l.036.093.092.015c.055.007.184.014.364.014.006 0 1.376.079 1.604-.092l.043-.036.014-.043c1.002-2.852 3.814-9.92 6.183-15.09 1.229-2.689 2.211-4.843 2.637-5.835.042 4.479.113 14.264.08 17.124 0 .584-.119 1.291-.997 1.583-.593.179-1.131.35-2.083.521l-.054.006-.039.058c-.246.35-.246 1.57 0 1.934l.047.065h.087c1.313-.051 3.418-.137 5.758-.137 1.748 0 3.12.05 4.229.094.705.021.999.043 1.49.043h.083l.049-.065c.25-.376.282-1.543.04-1.925l-.028-.067zM365.442 93.299a65.007 65.007 0 0 0-2.792-1.422c-1.227-.582-2.482-1.182-3.53-1.814-2.032-1.237-3.552-1.627-3.552-4.287 0-1.91 2.071-4.151 4.902-4.151 1.042 0 2.774.158 3.892.907.983.698 1.515 1.711 1.771 3.857v.05l.033.039c.2.218.807.231.988.231.26 0 .91-.021 1.038-.32l.014-.043c.257-3.053.477-4.187.721-5.273l.028-.161s-1.384-.33-2.015-.478c-1.498-.338-3.513-.959-5.845-.959-5.527 0-9.91 2.343-9.91 7.526 0 3.952 2.978 6.318 7.728 8.409 5.406 2.371 5.759 3.33 5.759 5.868 0 3.225-2.812 4.094-4.475 4.094-1.712 0-3.217-.428-4.251-1.201-1.413-.979-2.597-1.886-3.833-4.468l-.02-.05-.05-.031c-.071-.048-.192-.069-.354-.069-.491 0-1.68.272-1.779.721l-.008.021.008.028c.128 1.491 1.06 5.229 1.505 5.791l.025.036.045.021c2.445.892 5.334 1.525 7.359 1.525 6.897 0 10.506-4.136 10.506-8.215.004-2.751-.941-4.506-3.908-6.182zM400.327 79.876c-.031 0-.062 0-.104.009l-.036.014c-1.095.564-2.061.656-4.403.656h-15.797c-1.969 0-2.811-.229-3.452-.57a.447.447 0 0 0-.196-.042c-.175 0-.728.121-.728.384-.128 2.069-.21 4.305-.53 6.083l-.008.044.008.039c.124.354 1.43.64 1.818.64a.689.689 0 0 0 .238-.037l.062-.035.015-.058c.712-1.969.837-1.926 1.336-2.753.585-1.026 1.231-1.154 1.73-1.154h4.828c.049.008.149.136.149.221 0 8.345-.063 14.422-.178 18.606-.085 2.024-.321 2.704-1.616 2.96-.588.128-1.245.25-2.273.391l-.778.095-.036.039c-.199.253-.281 1.639.008 1.924l.047.043h.07c.743-.03 2.989-.134 6.772-.134 3.292 0 5.973.091 7.277.134h.062l.039-.03c.321-.221.461-1.604.246-1.918l-.035-.058-.075-.014c-.442-.058-.838-.114-1.194-.164-1.102-.144-1.77-.222-2.314-.385-.978-.286-.928-.936-1.002-1.599-.139-1.791-.139-9.975-.125-16.554v-3.38a.433.433 0 0 1 .089-.137 38.32 38.32 0 0 1 2.037-.034c1.005 0 2.143.007 3.295.034.759 0 1.205.313 1.561 1.092.285.785.817.706.952 2.438v.043l.021.051c.188.215.924.234 1.135.234.38 0 .874-.051 1.041-.234l.032-.051.008-.043c.194-2.204.306-4.572.736-6.33l.022-.089-.062-.07c-.107-.101-.436-.301-.692-.301z"
     id="path75"
     style="fill:#ffffff" /><g
     id="g85"
     style="fill:#ffffff"><path
       d="m100.996 63.693 1.604 3.635 3.944-.432-2.339 3.209 2.339 3.21-3.944-.428-1.604 3.637-1.605-3.637-3.954.428 2.349-3.21-2.349-3.209 3.954.432zM47.313 153.613c-2.981 0-5.413-2.432-5.413-5.406 0-2.988 2.432-5.421 5.413-5.421s5.413 2.433 5.413 5.421c.001 2.975-2.431 5.406-5.413 5.406zm0-9.343a3.93 3.93 0 0 0-3.929 3.938 3.925 3.925 0 0 0 3.929 3.922c2.168 0 3.937-1.761 3.937-3.922a3.94 3.94 0 0 0-3.937-3.938zM64.773 142.786c-2.981 0-5.414 2.433-5.414 5.421 0 2.976 2.432 5.406 5.414 5.406 2.98 0 5.413-2.432 5.413-5.406 0-2.988-2.433-5.421-5.413-5.421z"
       id="path77"
       style="fill:#ffffff" /><g
       id="g83"
       style="fill:#ffffff"><path
         d="M89.47 33.167a45.417 45.417 0 0 0-4.814-3.257c-15.112-5.353-32.286-.794-42 12.703-5.613 7.78-7.01 17.416-5.694 26.715.688 4.807 2.464 9.136 5.124 12.873l.856-2.168c-5.534-9.792-5.488-22.55-.257-32.867C51.25 30.281 73.238 23.799 89.684 33.32c.399.224 2.696.521 1.662-.271-23.086-17.858-56.998-13.386-73.53 10.847C9.722 55.767 7.782 70.948 11.719 84.62c3.088 10.676 10.077 19.776 19.114 26.13l.442-1.141c-18.507-14-24.626-40.024-13.422-61.127 12.709-23.97 43.91-32.086 66.803-18.572M56.05 120.514c-3.416 0-6.775-.494-10.027-1.483l.528-1.684c6.14 1.867 12.837 1.867 18.999 0l.506 1.684a34.21 34.21 0 0 1-10.006 1.483zM56.05 113.081c-2.917 0-5.791-.419-8.565-1.268l.536-1.685a27.736 27.736 0 0 0 16.061 0l.517 1.685a29.07 29.07 0 0 1-8.549 1.268zM56.05 105.688c-2.496 0-4.956-.373-7.316-1.086l.527-1.689a23.396 23.396 0 0 0 13.572 0l.52 1.689a25.225 25.225 0 0 1-7.303 1.086zM56.05 98.312c-2.132 0-4.243-.321-6.254-.929l.514-1.687a19.78 19.78 0 0 0 11.461 0l.527 1.687a21.59 21.59 0 0 1-6.248.929z"
         id="path79"
         style="fill:#ffffff" /><path
         d="M36.402 122.312c-1.441 3.644-2.418 7.103-2.597 8.729-.321 2.832-.093 3.424.1 3.858v2.084h-10.07v-2.084c3.238 0 6.026-6.918 7.802-11.305l23.375-59.266h8.69l13.629 34.383c5.249-2.831 9.286-8.072 11.889-13.193.263-.521 2.083-.669 2.367-.133 3.788 7.064 10.755 12.842 18.622 14.944 1.219.336-1.105.941-1.697.792-7.325-1.969-14.007-6.989-18.087-13.321-2.953 5.014-7.253 9.765-12.609 12.14l10.42 26.302c1.448 3.644 2.945 6.005 4.508 7.067 1.554 1.062 1.312 1.59 4.774 1.59v2.084H73.684v-2.084c4.847 0 4.111-1.434 4.111-4.292 0-.828-.221-1.752-.648-2.776l-21.56-54.809-19.185 49.29z"
         id="path81"
         style="fill:#ffffff" /></g></g></svg>
