<?xml version="1.0" encoding="utf-8"?>
<!-- Generator: Adobe Illustrator 16.0.0, SVG Export Plug-In . SVG Version: 6.00 Build 0)  -->
<!DOCTYPE svg PUBLIC "-//W3C//DTD SVG 1.1//EN" "http://www.w3.org/Graphics/SVG/1.1/DTD/svg11.dtd">
<svg version="1.1" id="レイヤー_1" xmlns="http://www.w3.org/2000/svg" xmlns:xlink="http://www.w3.org/1999/xlink" x="0px"
	 y="0px" width="438.131px" height="169.105px" viewBox="0 0 438.131 169.105" enable-background="new 0 0 438.131 169.105"
	 xml:space="preserve">
<g>
	<g>
		<path d="M158.15,105.372l-0.064-0.021c-2.365-0.344-2.253-0.648-3.58-3.616c-1.634-3.705-6.354-16.161-7.239-18.601
			c-0.343-0.959-0.988-2.667-1.099-3.022c-0.098-0.364-3.237-0.356-3.333,0c-0.106,0.346-0.773,2.468-1.052,3.28
			c-0.971,2.859-5.12,13.586-6.938,17.923c-1.491,3.457-1.127,3.623-4.201,4.036l-0.058,0.014l-0.032,0.039
			c-0.228,0.275-0.228,1.645,0,1.9l0.046,0.065h0.071c0.133,0,2.29-0.166,4.507-0.166c2.326,0,4.718,0.166,4.871,0.166h0.065
			l0.057-0.043c0.25-0.266,0.356-1.641,0.136-1.924l-0.041-0.053h-0.067c-0.93-0.106-1.169-0.229-1.64-0.351
			c-1.177-0.271-1.283-0.526-1.283-1.233c0-0.67,0.755-2.695,1.49-4.656c0.171-0.449,0.178-0.354,0.343-0.806
			c0,0,0.25-0.266,0.364-0.266c0.47-0.036,0.916-0.036,3.609-0.036c1.576,0,3.529,0,4.3,0.036c0.036,0.008,0.22,0.05,0.285,0.2
			c0.749,1.812,1.815,4.101,2.333,5.776c0.057,0.207,0.028,0.691-0.407,0.869c-0.606,0.2-0.856,0.329-1.875,0.465l-0.043,0.014
			l-0.043,0.036c-0.278,0.271-0.242,1.642-0.007,1.902l0.05,0.066h0.067c0.183,0,2.871-0.18,5.549-0.188
			c1.986,0,4.065,0.165,4.575,0.188h0.193l0.042-0.066c0.178-0.204,0.307-1.097,0.243-1.562
			C158.308,105.559,158.25,105.438,158.15,105.372z M143.394,85.889h0.008c0.656,1.571,2.054,5.42,2.899,7.753l0.459,1.341
			c0.022,0.114-0.05,0.221-0.071,0.229c-0.557,0.041-1.911,0.041-2.971,0.041c-1.215,0-3.126,0-3.555-0.035
			c-0.039-0.014-0.049-0.056-0.057-0.131c0.421-1.345,1.291-3.62,1.904-5.293c0.536-1.469,1.035-2.85,1.377-3.903L143.394,85.889
			L143.394,85.889z"/>
		<path d="M428.841,105.372l-0.062-0.021c-2.369-0.344-2.547-0.648-3.874-3.616c-1.629-3.705-6.372-16.161-7.238-18.601
			c-0.332-0.959-0.996-2.667-1.096-3.022c-0.117-0.364-2.956-0.356-3.06,0c-0.089,0.346-0.76,2.468-1.049,3.28
			c-0.966,2.859-5.113,13.586-6.932,17.923c-1.491,3.457-1.123,3.623-4.193,4.036l-0.061,0.014l-0.036,0.039
			c-0.217,0.275-0.217,1.645,0,1.9l0.047,0.065h0.074c0.285,0,9.072,0,9.379,0h0.057l0.057-0.043
			c0.262-0.266,0.354-1.641,0.144-1.924l-0.042-0.053h-0.064c-0.94-0.106-1.177-0.229-1.644-0.351
			c-1.18-0.271-1.281-0.526-1.281-1.233c0-0.67,0.76-2.695,1.499-4.656c0.168-0.449,0.168-0.354,0.325-0.806
			c0,0,0.252-0.266,0.378-0.266c0.456-0.036,0.913-0.036,3.601-0.036c1.575,0,3.531,0,4.312,0.036c0.021,0.008,0.206,0.05,0.271,0.2
			c0.744,1.812,1.823,4.101,2.341,5.776c0.057,0.207,0.022,0.691-0.415,0.869c-0.6,0.2-0.854,0.329-1.869,0.465l-0.058,0.014
			l-0.035,0.036c-0.274,0.271-0.229,1.642-0.015,1.902l0.05,0.066h0.076c0.32,0,8.95-0.058,10.129,0h0.188l0.062-0.066
			c0.156-0.204,0.292-1.097,0.223-1.562C428.997,105.559,428.94,105.438,428.841,105.372z M414.085,85.889L414.085,85.889
			c0.662,1.571,2.053,5.42,2.905,7.753l0.456,1.341c0.028,0.114-0.045,0.221-0.067,0.229c-0.552,0.041-1.922,0.041-2.97,0.041
			c-1.222,0-3.136,0-3.56-0.035c-0.047-0.014-0.061-0.056-0.066-0.131c0.427-1.345,1.312-3.62,1.91-5.293
			c0.527-1.469,1.038-2.85,1.38-3.903C414.081,85.889,414.085,85.889,414.085,85.889z"/>
		<path d="M185.565,98.135c-0.036,0-0.064,0-0.086,0.011l-0.085,0.007l-0.04,0.09c-0.632,1.454-1.637,3.494-2.499,4.835
			c-0.877,1.391-1.626,1.669-2.558,1.669h-1.386c-2.054,0-4.529-0.029-5.481-0.285c-0.014,0-0.767-0.392-0.81-1.056
			c-0.12-1.653-0.12-3.853-0.12-10.378c0-4.393,0.028-7.688,0.12-9.367c0.036-0.716,0.143-1.237,1.06-1.472
			c0.224-0.028,1.333-0.292,1.815-0.421l0.078-0.008l0.036-0.051c0.235-0.343,0.314-1.548-0.015-1.875l-0.05-0.043l-0.253,0.016
			c-0.944,0.034-1.815,0.112-4.921,0.112c-1.808,0-3.063-0.043-4.069-0.085c-0.699-0.015-0.52-0.043-1.105-0.043h-0.064
			l-0.046,0.037c-0.317,0.267-0.411,1.511-0.15,1.881l0.035,0.051l0.068,0.008c0.613,0.113,1.099,0.276,1.626,0.435
			c0.678,0.215,1.07,0.643,1.121,2.231c0.064,0.85,0.056,3.074,0.056,5.542c-0.006,0.979-0.006,2.09-0.006,3.338
			c0,2.511-0.05,8.985-0.128,10.163c-0.093,0.648-0.5,1.318-1.035,1.447c-0.414,0.094-0.842,0.179-1.912,0.293
			c-0.256,0.028-0.537,0.055-0.826,0.085l-0.083,0.014c-0.203,0.145-0.242,0.564-0.242,0.899c0,0.136,0.011,0.897,0.289,1.084
			l0.037,0.016h0.052c0.282,0,1.01-0.016,1.901-0.029c1.523-0.047,3.139-0.101,4.537-0.101c1.034,0,3.172,0.043,5.42,0.101
			c2.695,0.057,5.477,0.121,7.097,0.121c1.311,0,1.867-0.185,2.014-0.635c0.885-1.462,2.158-6.005,2.45-7.717l0.015-0.063
			l-0.05-0.064C187.099,98.562,186.061,98.135,185.565,98.135z"/>
		<path d="M224.069,113.925c-0.827-0.229-1.604-0.605-2.574-0.978l-0.734-0.272c0,0-1.32-0.525-2.312-0.961
			c-0.441-0.208-0.748-0.329-0.919-0.386c-1.812-0.733-3.662-1.751-5.521-3.074c-0.591-0.42-1.116-0.812-1.593-1.169
			c0.188-0.062,0.295-0.113,0.295-0.128c5.392-1.351,10.474-5.764,10.474-13.521c0-7.889-6.909-13.829-15.066-13.829
			c-8.18,0-15.069,6.317-15.069,13.829c0,7.089,4.814,12.286,10.477,13.521c1.212,0.248,2.311,0.414,3.315,0.483
			c0.39,0.328,0.8,0.648,1.241,0.971c2.222,1.604,4.279,2.903,6.177,3.862c1.904,0.952,4.403,1.578,6.696,2.089
			c2.433,0.539,3.255,0.488,4.101,0.488c0.137,0,0.264,0.021,0.853,0c0,0,0.325-0.199,0.312-0.481
			C224.214,114.224,224.228,113.966,224.069,113.925z M196.848,93.284c0-4.472,1.184-12.509,9.292-12.509
			c8.062,0,9.264,8.303,9.264,12.638c0,3.68-0.741,12.694-8.808,12.694C198.488,106.107,196.848,97.85,196.848,93.284z"/>
		<path d="M257.662,79.841h-0.043c-0.271,0-0.378,0.016-1.044,0.035c-1.133,0.043-1.969,0.101-3.325,0.101
			c-1.688,0-2.565-0.058-3.726-0.092c-0.707-0.016-0.871-0.044-1.229-0.044h-0.066l-0.062,0.051c-0.228,0.21-0.274,0.854-0.256,1.22
			c0.014,0.35,0.083,0.578,0.217,0.677l0.04,0.029l0.055,0.015c0.346,0.05,0.969,0.134,0.969,0.134s0.561,0.079,1.027,0.194
			c1.205,0.257,1.444,0.982,1.483,2.773c0.225,4.021-0.007,8.339-0.039,11.856c-0.036,4.539-3.022,7.405-7.603,7.612
			c-5.484,0.243-7.646-2.709-8.023-5.291c-0.122-0.663-0.264-2.347-0.317-3.274c-0.024-1.205-0.108-5.604-0.043-11.36
			c0.043-1.247,0.539-1.91,1.087-2.073c0.613-0.193,0.789-0.332,1.295-0.4c0.351-0.043,0.402-0.105,0.823-0.179l0.046-0.007
			l0.039-0.035c0.215-0.207,0.236-0.863,0.2-1.249c-0.058-0.526-0.214-0.635-0.274-0.663l-0.039-0.028H238.8
			c-0.531,0-0.999,0.028-1.908,0.051c-1.173,0.043-2.496,0.085-3.654,0.085c-1.266,0-2.949-0.042-4.309-0.058
			c-0.896-0.021-1.18-0.027-1.537-0.027l-0.086,0.007c-0.256,0.122-0.324,0.621-0.345,0.906c-0.019,0.242-0.019,0.834,0.238,0.999
			l0.271,0.057c0.899,0.122,1.219,0.371,1.695,0.569c0.814,0.229,1.2,0.778,1.248,1.784c0,0.333,0.014,1.24,0.023,2.46
			c0.043,3.836-0.158,11.582,0.465,13.637c1.926,6.39,7.943,7.209,12.707,7.209c5.757,0,9.188-2.475,10.261-5.805
			c0.823-2.577,0.856-6.062,1.06-11.469c0.049-1.476,0.057-3.151,0.127-5.057c0.101-1.839,0.256-2.433,1.355-2.909
			c0.688-0.292,1.263-0.464,1.263-0.464c0.171-0.07,0.276-0.285,0.306-0.649c0.043-0.343,0.016-1.12-0.273-1.298L257.662,79.841z"/>
		<path d="M277.951,105.309h-0.042c-1.402-0.192-1.922-0.378-2.376-0.471c-1.233-0.321-1.447-0.806-1.491-2.17
			c-0.07-1.391-0.128-5.177-0.128-9.633c0-0.822,0-1.605,0-2.348c-0.006-2.811-0.021-5.015,0.083-6.483
			c0.089-1.298,0.25-1.711,1.166-1.947c0.595-0.17,0.904-0.248,2.011-0.377l0.074-0.007l0.041-0.066c0.249-0.354,0.21-1.561,0-1.882
			l-0.046-0.077h-0.083c-0.485,0-0.748,0.027-1.604,0.05c-1.191,0.044-2.666,0.086-4.019,0.086c-1.388,0-3.021-0.05-4.197-0.086
			c-0.749-0.021-0.817-0.05-1.146-0.05h-0.074l-0.046,0.07c-0.202,0.258-0.31,1.618-0.024,1.912l0.031,0.043l0.061,0.007
			c1.289,0.163,1.547,0.296,2.297,0.515c0.771,0.221,0.897,0.576,0.99,1.769c0.1,1.598,0.086,3.422,0.086,5.955
			c-0.008,0.699-0.008,1.419-0.008,2.204c0,1.347,0,2.538,0.008,3.572c0,4.508,0,6.368-0.136,7.374
			c-0.121,0.842-0.26,1.37-1.541,1.697c-0.62,0.121-0.819,0.206-1.997,0.343h-0.035l-0.029,0.035
			c-0.238,0.192-0.238,0.997-0.203,1.349c0.054,0.491,0.182,0.612,0.262,0.656l0.078,0.021c0.267,0,0.467-0.021,1.216-0.043
			c1.353-0.029,3.224-0.091,4.838-0.091c1.377,0,3.025,0.047,4.358,0.091c0.855,0.021,1.062,0.043,1.433,0.043h0.058l0.043-0.036
			c0.242-0.187,0.293-1.026,0.293-1.299c0-0.493-0.092-0.635-0.17-0.691L277.951,105.309z"/>
		<path d="M342.638,105.309h-0.04c-1.404-0.192-1.922-0.378-2.367-0.471c-1.245-0.321-1.459-0.806-1.502-2.17
			c-0.077-1.391-0.128-5.177-0.128-9.633c0-0.822,0-1.605,0-2.348c-0.007-2.811-0.007-5.015,0.082-6.483
			c0.089-1.298,0.243-1.711,1.163-1.947c0.6-0.17,0.92-0.248,2.016-0.377l0.069-0.007l0.043-0.066c0.25-0.354,0.207-1.561,0-1.882
			l-0.043-0.077h-0.085c-0.487,0-0.738,0.027-1.594,0.05c-1.198,0.044-2.682,0.086-4.029,0.086c-1.387,0-3.006-0.05-4.196-0.086
			c-0.746-0.021-0.82-0.05-1.139-0.05h-0.082l-0.046,0.07c-0.2,0.258-0.312,1.618-0.024,1.912l0.039,0.043l0.043,0.007
			c1.3,0.163,1.551,0.296,2.296,0.515c0.776,0.221,0.916,0.576,1.002,1.769c0.093,1.598,0.086,3.422,0.078,5.955
			c0,0.699,0,1.419,0,2.204c0,1.347,0,2.538,0,3.572c0.008,4.508,0.008,6.368-0.128,7.374c-0.117,0.842-0.266,1.37-1.534,1.697
			c-0.626,0.121-0.827,0.206-1.996,0.343H330.5l-0.037,0.035c-0.236,0.192-0.236,0.997-0.195,1.349
			c0.05,0.491,0.171,0.612,0.261,0.656l0.069,0.021c0.279,0,0.473-0.021,1.222-0.043c1.354-0.029,3.223-0.091,4.832-0.091
			c1.373,0,3.026,0.047,4.354,0.091c0.863,0.021,1.066,0.043,1.447,0.043h0.044l0.05-0.036c0.235-0.187,0.291-1.026,0.291-1.299
			c0-0.493-0.092-0.635-0.163-0.691L342.638,105.309z"/>
		<path d="M322.223,105.314l-0.07-0.014c-0.403-0.057-0.446-0.113-0.768-0.165c-0.56-0.077-1.016-0.142-1.416-0.22
			c-0.674-0.292-0.922-0.819-1.091-2.352c-0.251-2.94-0.58-16.057-0.495-18.675c0-1.104,0.489-1.396,0.975-1.539
			c0.487-0.128,0.127-0.144,0.95-0.351c0.5-0.121,0.929-0.157,1.186-0.284c0.256-0.15,0.16-0.984,0.114-1.362
			c-0.052-0.379-0.154-0.479-0.223-0.526l-0.039-0.017h-0.04c-0.799,0-1.06,0.017-1.979,0.036c-1.406,0.043-3.149-0.051-5.824-0.051
			h-0.136c0,0-0.364,1.529-0.688,2.46c-1.803,4.244-7.246,15.685-7.984,17.167c-0.855-1.662-5.887-12.327-7.875-16.773
			c-0.43-1.062-0.654-2.854-0.654-2.854h-0.143c-2.731,0-4.683,0.094-6.162,0.051c-0.959-0.021-1.092-0.036-1.805-0.036h-0.047
			l-0.039,0.017c-0.234,0.147-0.279,0.84-0.285,1.047c0,0.351,0.043,0.785,0.235,0.933l0.063,0.023
			c1.57,0.263,1.855,0.436,2.511,0.648c0.899,0.271,1.034,1.173,1.034,1.665c-0.059,0.694-0.121,1.564-0.188,2.515
			c-0.382,4.971-0.956,12.478-1.38,15.604c-0.25,1.755-0.445,2.196-1.633,2.609c-0.592,0.158-0.885,0.294-1.969,0.429l-0.062,0.008
			l-0.053,0.057c-0.25,0.322-0.25,1.63,0.007,1.939l0.046,0.065h0.082c0.271,0,0.296-0.021,0.892-0.043
			c1.069-0.029,2.547-0.094,4.115-0.094c1.547,0,3.151,0.063,4.322,0.094c0.643,0.021,0.343,0.043,0.605,0.043h0.043l0.024-0.021
			c0.167-0.104,0.289-0.372,0.347-0.8c0.049-0.342,0.07-0.99-0.137-1.197l-0.042-0.043l-0.05-0.008
			c-1.404-0.179-1.511-0.307-2.207-0.562c-1.273-0.399-1.334-1.04-1.334-2.325c0.132-4.551,0.85-15.726,0.85-15.726
			c0.491,1.183,1.112,2.683,1.879,4.485c2.451,5.719,6.104,13.216,6.903,15.883l0.036,0.093l0.092,0.015
			c0.055,0.007,0.184,0.014,0.364,0.014c0.006,0,1.376,0.079,1.604-0.092l0.043-0.036l0.014-0.043
			c1.002-2.852,3.814-9.92,6.183-15.09c1.229-2.689,2.211-4.843,2.637-5.835c0.042,4.479,0.113,14.264,0.08,17.124
			c0,0.584-0.119,1.291-0.997,1.583c-0.593,0.179-1.131,0.35-2.083,0.521l-0.054,0.006l-0.039,0.058c-0.246,0.35-0.246,1.57,0,1.934
			l0.047,0.065h0.087c1.313-0.051,3.418-0.137,5.758-0.137c1.748,0,3.12,0.05,4.229,0.094c0.705,0.021,0.999,0.043,1.49,0.043h0.083
			l0.049-0.065c0.25-0.376,0.282-1.543,0.04-1.925L322.223,105.314z"/>
		<path d="M365.442,93.299c-0.683-0.377-1.908-0.999-2.792-1.422c-1.227-0.582-2.482-1.182-3.53-1.814
			c-2.032-1.237-3.552-1.627-3.552-4.287c0-1.91,2.071-4.151,4.902-4.151c1.042,0,2.774,0.158,3.892,0.907
			c0.983,0.698,1.515,1.711,1.771,3.857v0.05l0.033,0.039c0.2,0.218,0.807,0.231,0.988,0.231c0.26,0,0.91-0.021,1.038-0.32
			l0.014-0.043c0.257-3.053,0.477-4.187,0.721-5.273l0.028-0.161c0,0-1.384-0.33-2.015-0.478c-1.498-0.338-3.513-0.959-5.845-0.959
			c-5.527,0-9.91,2.343-9.91,7.526c0,3.952,2.978,6.318,7.728,8.409c5.406,2.371,5.759,3.33,5.759,5.868
			c0,3.225-2.812,4.094-4.475,4.094c-1.712,0-3.217-0.428-4.251-1.201c-1.413-0.979-2.597-1.886-3.833-4.468l-0.02-0.05l-0.05-0.031
			c-0.071-0.048-0.192-0.069-0.354-0.069c-0.491,0-1.68,0.272-1.779,0.721l-0.008,0.021l0.008,0.028
			c0.128,1.491,1.06,5.229,1.505,5.791l0.025,0.036l0.045,0.021c2.445,0.892,5.334,1.525,7.359,1.525
			c6.897,0,10.506-4.136,10.506-8.215C369.354,96.73,368.409,94.975,365.442,93.299z"/>
		<path d="M400.327,79.876c-0.031,0-0.062,0-0.104,0.009l-0.036,0.014c-1.095,0.564-2.061,0.656-4.403,0.656h-15.797
			c-1.969,0-2.811-0.229-3.452-0.57c-0.046-0.021-0.106-0.042-0.196-0.042c-0.175,0-0.728,0.121-0.728,0.384
			c-0.128,2.069-0.21,4.305-0.53,6.083l-0.008,0.044l0.008,0.039c0.124,0.354,1.43,0.64,1.818,0.64c0.106,0,0.178-0.016,0.238-0.037
			l0.062-0.035l0.015-0.058c0.712-1.969,0.837-1.926,1.336-2.753c0.585-1.026,1.231-1.154,1.73-1.154h4.828
			c0.049,0.008,0.149,0.136,0.149,0.221c0,8.345-0.063,14.422-0.178,18.606c-0.085,2.024-0.321,2.704-1.616,2.96
			c-0.588,0.128-1.245,0.25-2.273,0.391l-0.778,0.095l-0.036,0.039c-0.199,0.253-0.281,1.639,0.008,1.924l0.047,0.043h0.07
			c0.743-0.03,2.989-0.134,6.772-0.134c3.292,0,5.973,0.091,7.277,0.134h0.062l0.039-0.03c0.321-0.221,0.461-1.604,0.246-1.918
			l-0.035-0.058l-0.075-0.014c-0.442-0.058-0.838-0.114-1.194-0.164c-1.102-0.144-1.77-0.222-2.314-0.385
			c-0.978-0.286-0.928-0.936-1.002-1.599c-0.139-1.791-0.139-9.975-0.125-16.554v-3.38c0.007-0.028,0.058-0.11,0.089-0.137
			c0.51-0.027,1.048-0.034,2.037-0.034c1.005,0,2.143,0.007,3.295,0.034c0.759,0,1.205,0.313,1.561,1.092
			c0.285,0.785,0.817,0.706,0.952,2.438v0.043l0.021,0.051c0.188,0.215,0.924,0.234,1.135,0.234c0.38,0,0.874-0.051,1.041-0.234
			l0.032-0.051l0.008-0.043c0.194-2.204,0.306-4.572,0.736-6.33l0.022-0.089l-0.062-0.07
			C400.912,80.076,400.583,79.876,400.327,79.876z"/>
	</g>
	<g>
		<polygon points="100.996,63.693 102.6,67.328 106.544,66.896 104.205,70.105 106.544,73.315 102.6,72.887 100.996,76.524 
			99.391,72.887 95.437,73.315 97.786,70.105 95.437,66.896 99.391,67.328 		"/>
		<g>
			<path d="M47.313,153.613c-2.981,0-5.413-2.432-5.413-5.406c0-2.988,2.432-5.421,5.413-5.421s5.413,2.433,5.413,5.421
				C52.727,151.182,50.295,153.613,47.313,153.613z M47.313,144.27c-2.175,0-3.929,1.762-3.929,3.938
				c0,2.161,1.754,3.922,3.929,3.922c2.168,0,3.937-1.761,3.937-3.922C51.25,146.031,49.482,144.27,47.313,144.27z"/>
			<path d="M64.773,142.786c-2.981,0-5.414,2.433-5.414,5.421c0,2.976,2.432,5.406,5.414,5.406c2.98,0,5.413-2.432,5.413-5.406
				C70.186,145.219,67.753,142.786,64.773,142.786z"/>
		</g>
		<g>
			<path d="M89.47,33.167c-1.547-1.202-3.167-2.287-4.814-3.257c-15.112-5.353-32.286-0.794-42,12.703
				c-5.613,7.78-7.01,17.416-5.694,26.715c0.688,4.807,2.464,9.136,5.124,12.873l0.856-2.168c-5.534-9.792-5.488-22.55-0.257-32.867
				C51.25,30.281,73.238,23.799,89.684,33.32c0.399,0.224,2.696,0.521,1.662-0.271C68.26,15.191,34.348,19.663,17.816,43.896
				C9.722,55.767,7.782,70.948,11.719,84.62c3.088,10.676,10.077,19.776,19.114,26.13l0.442-1.141
				c-18.507-14-24.626-40.024-13.422-61.127c12.709-23.97,43.91-32.086,66.803-18.572"/>
			<path d="M56.05,120.514c-3.416,0-6.775-0.494-10.027-1.483l0.528-1.684c6.14,1.867,12.837,1.867,18.999,0l0.506,1.684
				C62.818,120.02,59.453,120.514,56.05,120.514z"/>
			<path d="M56.05,113.081c-2.917,0-5.791-0.419-8.565-1.268l0.536-1.685c5.185,1.584,10.868,1.584,16.061,0l0.517,1.685
				C61.834,112.662,58.961,113.081,56.05,113.081z"/>
			<path d="M56.05,105.688c-2.496,0-4.956-0.373-7.316-1.086l0.527-1.689c4.372,1.341,9.196,1.341,13.572,0l0.52,1.689
				C61.007,105.314,58.532,105.688,56.05,105.688z"/>
			<path d="M56.05,98.312c-2.132,0-4.243-0.321-6.254-0.929l0.514-1.687c3.701,1.131,7.766,1.131,11.461,0l0.527,1.687
				C60.287,97.991,58.183,98.312,56.05,98.312z"/>
			<g>
				<path d="M36.402,122.312c-1.441,3.644-2.418,7.103-2.597,8.729c-0.321,2.832-0.093,3.424,0.1,3.858v2.084h-10.07v-2.084
					c3.238,0,6.026-6.918,7.802-11.305l23.375-59.266h8.69l13.629,34.383c5.249-2.831,9.286-8.072,11.889-13.193
					c0.263-0.521,2.083-0.669,2.367-0.133c3.788,7.064,10.755,12.842,18.622,14.944c1.219,0.336-1.105,0.941-1.697,0.792
					c-7.325-1.969-14.007-6.989-18.087-13.321c-2.953,5.014-7.253,9.765-12.609,12.14l10.42,26.302
					c1.448,3.644,2.945,6.005,4.508,7.067c1.554,1.062,1.312,1.59,4.774,1.59v2.084H73.684v-2.084c4.847,0,4.111-1.434,4.111-4.292
					c0-0.828-0.221-1.752-0.648-2.776l-21.56-54.809L36.402,122.312z"/>
			</g>
		</g>
	</g>
</g>
</svg>
